name processed_emg.mot						
datacolumns 7						
datarows 52						
range 1.54 2.05						
endheader						
time	RGLTMED	    RRF	        RADDLONG	 RST	    RTA	        RGM
1.54	0.000277225	0.004072426	0.000160324	-0.00066075	0.007783492	0.000802641
1.55	0.000355001	0.004244126	0.000257896	-0.000535689	0.008272259	0.000850064
1.56	0.000432495	0.004416175	0.000358458	-0.00041132	0.008761412	0.000897608
1.57	0.000509661	0.004588446	0.000462008	-0.000287729	0.009250652	0.000945248
1.58	0.000586453	0.004760808	0.00056854	-0.000164999	0.009739682	0.000992962
1.59	0.000662824	0.004933131	0.000678045	-4.32E-05	0.010228201	0.001040724
1.6	0.000738728	0.005105282	0.000790512	7.75E-05	0.010715911	0.001088513
1.61	0.000814121	0.005277128	0.000905926	0.000197202	0.011202513	0.001136305
1.62	0.000888958	0.005448536	0.001024272	0.00031567	0.011687709	0.001184078
1.63	0.000963195	0.00561937	0.001145527	0.000432875	0.012171202	0.001231812
1.64	0.001036788	0.005789496	0.001269669	0.000548741	0.012652697	0.001279484
1.65	0.001109695	0.005958779	0.001396671	0.000663192	0.0131319	0.001327075
1.66	0.001181875	0.006127083	0.001526504	0.000776157	0.01360852	0.001374565
1.67	0.001253286	0.006294273	0.001659135	0.000887565	0.014082269	0.001421937
1.68	0.001323889	0.006460214	0.001794528	0.000997346	0.014552862	0.001469171
1.69	0.001393643	0.006624771	0.001932643	0.001105435	0.015020016	0.001516251
1.7	0.001462512	0.00678781	0.002073439	0.001211767	0.015483454	0.001563161
1.71	0.001530458	0.006949198	0.002216871	0.001316279	0.015942901	0.001609886
1.72	0.001597446	0.007108804	0.00236289	0.001418912	0.016398089	0.001656411
1.73	0.00166344	0.007266495	0.002511444	0.001519608	0.016848752	0.001702724
1.74	0.001728407	0.007422142	0.002662477	0.001618312	0.017294631	0.001748813
1.75	0.001792314	0.007575617	0.002815934	0.001714971	0.017735472	0.001794666
1.76	0.00185513	0.007726793	0.002971751	0.001809536	0.018171027	0.001840273
1.77	0.001916826	0.007875546	0.003129865	0.001901959	0.018601054	0.001885626
1.78	0.001977372	0.008021752	0.003290209	0.001992195	0.019025316	0.001930717
1.79	0.002036742	0.008165292	0.003452711	0.002080202	0.019443584	0.001975539
1.8	0.00209491	0.008306048	0.0036173	0.002165941	0.019855636	0.002020087
1.81	0.002151851	0.008443903	0.003783897	0.002249374	0.020261256	0.002064355
1.82	0.002207542	0.008578744	0.003952425	0.002330468	0.020660236	0.002108341
1.83	0.002261962	0.008710462	0.0041228	0.002409192	0.021052375	0.002152043
1.84	0.00231509	0.008838949	0.004294937	0.002485516	0.02143748	0.00219546
1.85	0.002366909	0.008964101	0.00446875	0.002559416	0.021815365	0.00223859
1.86	0.0024174	0.009085816	0.004644146	0.002630869	0.022185854	0.002281437
1.87	0.002466549	0.009203998	0.004821034	0.002699853	0.022548776	0.002324001
1.88	0.002514341	0.009318552	0.004999316	0.002766353	0.02290397	0.002366287
1.89	0.002560764	0.009429388	0.005178895	0.002830352	0.023251284	0.002408298
1.9	0.002605806	0.009536419	0.00535967	0.002891841	0.023590573	0.00245004
1.91	0.002649459	0.009639562	0.005541538	0.002950808	0.0239217	0.002491519
1.92	0.002691714	0.009738738	0.005724393	0.003007248	0.024244538	0.002532742
1.93	0.002732566	0.009833873	0.005908128	0.003061157	0.024558968	0.002573719
1.94	0.002772008	0.009924894	0.006092633	0.003112535	0.02486488	0.002614457
1.95	0.002810039	0.010011736	0.006277796	0.003161381	0.02516217	0.002654967
1.96	0.002846656	0.010094337	0.006463504	0.003207702	0.025450747	0.002695259
1.97	0.002881859	0.010172638	0.006649641	0.003251503	0.025730524	0.002735346
1.98	0.00291565	0.010246586	0.006836091	0.003292793	0.026001426	0.00277524
1.99	0.00294803	0.010316132	0.007022735	0.003331585	0.026263385	0.002814954
2	0.002979004	0.010381232	0.007209452	0.003367893	0.026516341	0.002854501
2.01	0.003008579	0.010441845	0.007396122	0.003401733	0.026760244	0.002893896
2.02	0.00303676	0.010497938	0.007582621	0.003433124	0.026995051	0.002933153
2.03	0.003063557	0.010549479	0.007768826	0.003462087	0.027220728	0.002972289
2.04	0.00308898	0.010596444	0.007954612	0.003488647	0.027437248	0.003011319
2.05	0.003113039	0.01063881	0.008139853	0.003512829	0.027644594	0.003050259
